<?xml version="1.0" encoding="UTF-8"?>
<svg id="Layer_1" xmlns="http://www.w3.org/2000/svg" viewBox="0 0 1556.36 469">
  <defs>
    <style>
      .cls-1 {
        fill: none;
        stroke: #000;
        stroke-miterlimit: 10;
        stroke-width: 23.44px;
      }

      .cls-2 {
        font-family: AcierBATText-Noir, 'Acier BAT';
        font-size: 394.94px;
      }
    </style>
  </defs>
  <path d="M299.33,219.68v-101.27h70.09v125.82h20.69v-125.82h70.09v101.27c0,32.84,0,94.92-80.3,94.92s-80.57-62.08-80.57-94.92Z"/>
  <path d="M482.82,243.69c36.42,0,49.12-9.38,69.53-60.7,17.66-44.42,41.67-64.57,87.19-64.57h9.38v67.6h-.28c-21.52,0-29.25,19.59-40.56,50.77-18.76,51.6-53.25,74.78-107.34,74.78h-17.94v-67.88Z"/>
  <path d="M665.49,118.41h169.14v67.88h-47.74v125.27h-68.98v-125.27h-52.43v-67.88Z"/>
  <path class="cls-1" d="M1062.01,129.36l66,.81-63.6,171.65-66.22-.81,63.82-171.65Z"/>
  <text class="cls-2" transform="translate(838.13 329.29) scale(.69 1)"><tspan x="0" y="0">&lt;</tspan></text>
  <text class="cls-2" transform="translate(1287.63 97.9) rotate(-180) scale(.69 1)"><tspan x="0" y="0">&lt;</tspan></text>
  <path d="M1353.2,232.94c-15.18,0-27.49,12.31-27.49,27.49s12.31,27.49,27.49,27.49,27.49-12.31,27.49-27.49-12.31-27.49-27.49-27.49ZM1353.2,274.68c-7.87,0-14.24-6.38-14.24-14.24s6.38-14.24,14.24-14.24,14.24,6.38,14.24,14.24-6.38,14.24-14.24,14.24Z"/>
  <path d="M1393.85,118.41v93.26l-99.61-98.23v198.12h168.59V118.41h-68.98ZM1449.79,296.21h-138.28v-132.82l95.29,85.58v-84.42h11.01v-7.55h20.52v7.55h11.47v131.66Z"/>
  <rect x="1321.54" y="207.86" width="20.52" height="12.78"/>
  <rect x="1385.08" y="282.51" width="58.08" height="5.52"/>
  <path d="M1349.53,249.94c.29-.15,5.96-2.97,10.79,1.31,3.69,3.27,4.23,8.32,4.31,9.19"/>
  <g>
    <polygon points="192.54 279.5 182.64 343.63 202.44 343.63 192.54 279.5"/>
    <g>
      <polygon points="1200.27 329.17 85.5 328.64 74.31 345.92 1190.32 346.41 1200.27 329.17"/>
      <polygon points="1208.27 346.42 1242.07 346.43 1252.02 329.19 1218.22 329.18 1208.27 346.42"/>
      <polygon points="1269.97 329.2 1260.01 346.44 1452.36 346.53 1462.83 329.29 1269.97 329.2"/>
    </g>
  </g>
  <g>
    <path d="M192.54,110.14l-102.37,201.43h82.98l19.39-96.57,19.39,96.57h82.98l-102.37-201.43ZM159.66,295.63h-38.64l62.27-74.79-23.63,74.79ZM158.85,223.97l33.69-66.28,33.69,66.28-33.69-19.77-33.69,19.77ZM201.78,220.83l62.27,74.79h-38.64l-23.63-74.79Z"/>
    <circle cx="192.54" cy="187.1" r="6.99"/>
  </g>
</svg>